<mxfile host="app.diagrams.net" modified="2024-04-04T12:56:01.450Z" agent="Mozilla/5.0 (Windows NT 10.0; Win64; x64) AppleWebKit/537.36 (KHTML, like Gecko) Chrome/123.0.0.0 Safari/537.36" version="24.2.2" etag="nnqBISTpcYOekPLUoFCO" type="github">
  <diagram name="PÃ¡gina-1" id="KhBrIkTKKqFawM_4K4rw">
    <mxGraphModel>
      <root>
        <mxCell id="0" />
        <mxCell id="1" parent="0" />
      </root>
    </mxGraphModel>
  </diagram>
</mxfile>
